# Blender v2.93.4 OBJ File: 'SushiBar.blend'
# www.blender.org
o Plane.007_Plane.004
v -2.743642 -0.726223 -3.158814
v -2.650717 -0.726223 -3.026901
v -2.716424 -0.726223 -3.065538
v -2.650717 -1.159413 -3.026901
v -2.743642 -1.159413 -3.158814
v -2.650717 -1.291326 -3.158814
v -2.716424 -1.159413 -3.065538
v -2.704367 -1.235573 -3.082654
v -2.716424 -1.252690 -3.158814
v -2.650717 -1.252690 -3.065538
v -2.650717 -0.726223 -3.868320
v -2.743642 -0.726223 -3.736407
v -2.716425 -0.726223 -3.829684
v -2.650717 -1.291326 -3.736407
v -2.743642 -1.159413 -3.736407
v -2.650717 -1.159413 -3.868320
v -2.716424 -1.252690 -3.736407
v -2.704367 -1.235573 -3.812567
v -2.716424 -1.159413 -3.829683
v -2.650717 -1.252690 -3.829683
v 2.806467 -0.726223 -3.736407
v 2.713542 -0.726223 -3.868320
v 2.779249 -0.726223 -3.829683
v 2.713542 -0.726223 -3.026901
v 2.806467 -0.726223 -3.158814
v 2.779250 -0.726223 -3.065538
v 2.713542 -1.159413 -3.026901
v 2.713542 -1.291326 -3.158814
v 2.806467 -1.159413 -3.158814
v 2.713542 -1.252690 -3.065538
v 2.767192 -1.235573 -3.082654
v 2.779250 -1.252690 -3.158814
v 2.779250 -1.159413 -3.065538
v 2.713542 -1.291326 -3.736407
v 2.713542 -1.159413 -3.868320
v 2.806467 -1.159413 -3.736407
v 2.713542 -1.252690 -3.829684
v 2.767192 -1.235573 -3.812567
v 2.779250 -1.159413 -3.829684
v 2.779250 -1.252690 -3.736407
v -2.650717 -0.726223 3.026901
v -2.743642 -0.726223 3.158814
v -2.716425 -0.726223 3.065537
v -2.650717 -1.159413 3.026901
v -2.650717 -1.291326 3.158814
v -2.743642 -1.159413 3.158814
v -2.650717 -1.252690 3.065537
v -2.704367 -1.235573 3.082654
v -2.716425 -1.252690 3.158814
v -2.716425 -1.159413 3.065537
v -2.743642 -0.726223 3.736406
v -2.650717 -0.726223 3.868319
v -2.716424 -0.726223 3.829683
v -2.650717 -1.291326 3.736406
v -2.650717 -1.159413 3.868319
v -2.743642 -1.159413 3.736406
v -2.650717 -1.252690 3.829683
v -2.704367 -1.235573 3.812566
v -2.716425 -1.159413 3.829683
v -2.716425 -1.252690 3.736406
v 2.713542 -0.726223 3.868319
v 2.806467 -0.726223 3.736406
v 2.779250 -0.726223 3.829683
v 2.806467 -0.726223 3.158814
v 2.713542 -0.726223 3.026901
v 2.779249 -0.726223 3.065537
v 2.713542 -1.159413 3.026901
v 2.806467 -1.159413 3.158814
v 2.713542 -1.291326 3.158814
v 2.779249 -1.159413 3.065537
v 2.767192 -1.235573 3.082654
v 2.779249 -1.252690 3.158814
v 2.713542 -1.252690 3.065537
v 2.713542 -1.291326 3.736406
v 2.806467 -1.159413 3.736406
v 2.713542 -1.159413 3.868319
v 2.779249 -1.252690 3.736406
v 2.767192 -1.235573 3.812566
v 2.779249 -1.159413 3.829683
v 2.713542 -1.252690 3.829683
vt 0.360013 0.389248
vt 0.670505 0.414322
vt 0.360013 0.414322
vt 0.038051 0.414461
vt 0.063125 0.381029
vt 0.063125 0.414461
vt 0.362943 0.444342
vt 0.673435 0.477774
vt 0.362943 0.477774
vt 0.363920 0.502111
vt 0.674411 0.527184
vt 0.363920 0.527184
vt 0.078509 0.381029
vt 0.103583 0.414461
vt 0.078509 0.414461
vt 0.670505 0.414322
vt 0.360013 0.389248
vt 0.360013 0.414322
vt 0.063125 0.381029
vt 0.038051 0.414461
vt 0.063125 0.414461
vt 0.673435 0.477774
vt 0.362943 0.444342
vt 0.362943 0.477774
vt 0.674411 0.527184
vt 0.363920 0.502111
vt 0.363920 0.527184
vt 0.103583 0.414461
vt 0.078509 0.381029
vt 0.078509 0.414461
vt 0.354635 0.384840
vt 0.360013 0.381613
vt 0.111218 0.418869
vt 0.103583 0.422096
vt 0.359838 0.485409
vt 0.357565 0.477774
vt 0.357565 0.439934
vt 0.362943 0.436707
vt 0.103583 0.381029
vt 0.107991 0.373394
vt 0.111218 0.381029
vt 0.360814 0.534820
vt 0.358541 0.527184
vt 0.670505 0.389248
vt 0.673610 0.381613
vt 0.675883 0.389248
vt 0.678813 0.482182
vt 0.673435 0.485409
vt 0.033643 0.422096
vt 0.030416 0.414461
vt 0.673435 0.444342
vt 0.676540 0.436707
vt 0.678813 0.444342
vt 0.679789 0.531593
vt 0.674411 0.534820
vt 0.038051 0.381029
vt 0.030416 0.376621
vt 0.038051 0.373394
vt 0.356908 0.381613
vt 0.354635 0.389248
vt 0.357565 0.482182
vt 0.362943 0.485409
vt 0.107991 0.422096
vt 0.111218 0.414461
vt 0.359838 0.436707
vt 0.357565 0.444342
vt 0.358541 0.531592
vt 0.363920 0.534820
vt 0.103583 0.381029
vt 0.111218 0.376621
vt 0.103583 0.373394
vt 0.670505 0.389248
vt 0.675883 0.384840
vt 0.670505 0.381613
vt 0.030416 0.418869
vt 0.038051 0.422096
vt 0.676540 0.485409
vt 0.678813 0.477774
vt 0.673435 0.444342
vt 0.678813 0.439934
vt 0.673435 0.436707
vt 0.038051 0.381029
vt 0.033643 0.373394
vt 0.030416 0.381029
vt 0.677516 0.534820
vt 0.679789 0.527184
vt 0.078509 0.422096
vt 0.354635 0.389248
vt 0.354635 0.414322
vt 0.111218 0.414461
vt 0.357565 0.444342
vt 0.103583 0.373394
vt 0.675883 0.414322
vt 0.038051 0.422096
vt 0.063125 0.422096
vt 0.678813 0.477774
vt 0.679789 0.502110
vt 0.679789 0.527184
vt 0.063125 0.373394
vt 0.673435 0.436707
vt 0.363920 0.534820
vt 0.362943 0.485409
vt 0.354635 0.414322
vt 0.103583 0.422096
vt 0.078509 0.422096
vt 0.357565 0.477774
vt 0.111218 0.381029
vt 0.358541 0.527184
vt 0.063125 0.422096
vt 0.675883 0.414322
vt 0.030416 0.414461
vt 0.678813 0.444342
vt 0.038051 0.373394
vt 0.674411 0.502110
vt 0.674411 0.534820
vt 0.360013 0.381613
vt 0.673435 0.485409
vt 0.674411 0.502110
vt 0.670505 0.381613
vt 0.030416 0.381029
vt 0.362943 0.436707
vt 0.675883 0.389248
vt 0.078509 0.373394
vt 0.358541 0.502111
vt 0.358541 0.502111
vt 0.078509 0.373394
vt 0.063125 0.373394
vt 0.679789 0.502111
vn 0.0000 0.0000 1.0000
vn 1.0000 0.0000 0.0000
vn -0.0000 -1.0000 0.0000
vn -0.0000 0.0000 -1.0000
vn -1.0000 0.0000 0.0000
vn -0.3848 -0.3532 0.8528
vn -0.9385 -0.2101 0.2739
vn -0.4889 -0.8314 0.2642
vn -0.3848 -0.8528 -0.3532
vn -0.9385 -0.2739 -0.2101
vn -0.4888 -0.2642 -0.8314
vn 0.4889 -0.2642 0.8314
vn 0.3848 -0.8528 0.3532
vn 0.9385 -0.2739 0.2101
vn 0.4889 -0.8314 -0.2642
vn 0.3848 -0.3532 -0.8528
vn 0.9385 -0.2101 -0.2739
vn -0.4889 -0.2642 -0.8314
vn 0.4888 -0.2642 0.8314
vn -0.9600 0.0000 0.2801
vn -0.5069 0.0000 0.8620
vn -0.9600 -0.2801 0.0000
vn -0.5069 -0.8620 0.0000
vn -0.9600 0.0000 -0.2801
vn -0.5069 0.0000 -0.8620
vn 0.5069 0.0000 0.8620
vn 0.9600 0.0000 0.2801
vn 0.5069 -0.8620 0.0000
vn 0.9600 -0.2801 0.0000
vn 0.5069 0.0000 -0.8620
vn 0.9600 0.0000 -0.2801
vn 0.0000 -0.9239 -0.3827
vn -0.0000 -0.3827 -0.9239
vn -0.0000 -0.9239 0.3827
vn -0.0000 -0.3827 0.9239
vn -0.4889 -0.2642 0.8314
vn -0.9385 -0.2739 0.2101
vn -0.3848 -0.8528 0.3532
vn -0.4889 -0.8314 -0.2642
vn -0.9385 -0.2101 -0.2739
vn -0.3848 -0.3532 -0.8528
vn 0.3848 -0.3532 0.8528
vn 0.4889 -0.8314 0.2642
vn 0.9385 -0.2101 0.2739
vn 0.3848 -0.8528 -0.3532
vn 0.4889 -0.2642 -0.8314
vn 0.9385 -0.2738 -0.2101
vn 0.9385 -0.2739 -0.2101
s off
f 4/1/1 24/2/1 2/3/1
f 29/4/2 21/5/2 25/6/2
f 14/7/3 28/8/3 6/9/3
f 11/10/4 35/11/4 16/12/4
f 12/13/5 5/14/5 1/15/5
f 65/16/4 44/17/4 41/18/4
f 62/19/2 68/20/2 64/21/2
f 69/22/3 54/23/3 45/24/3
f 76/25/1 52/26/1 55/27/1
f 46/28/5 51/29/5 42/30/5
f 4/1/6 8/31/6 10/32/6
f 5/14/7 8/33/7 7/34/7
f 6/9/8 8/35/8 9/36/8
f 14/7/9 18/37/9 20/38/9
f 15/39/10 18/40/10 17/41/10
f 16/12/11 18/42/11 19/43/11
f 27/44/12 31/45/12 33/46/12
f 28/8/13 31/47/13 30/48/13
f 29/4/14 31/49/14 32/50/14
f 34/51/15 38/52/15 40/53/15
f 35/11/16 38/54/16 37/55/16
f 36/56/17 38/57/17 39/58/17
f 44/17/18 48/59/18 50/60/18
f 45/24/9 48/61/9 47/62/9
f 46/28/10 48/63/10 49/64/10
f 54/23/8 58/65/8 60/66/8
f 55/27/6 58/67/6 57/68/6
f 56/69/7 58/70/7 59/71/7
f 67/72/16 71/73/16 73/74/16
f 68/20/17 71/75/17 70/76/17
f 69/22/15 71/77/15 72/78/15
f 74/79/13 78/80/13 80/81/13
f 75/82/14 78/83/14 77/84/14
f 76/25/19 78/85/19 79/86/19
f 5/14/20 3/87/20 1/15/20
f 7/88/21 2/3/21 3/89/21
f 15/39/22 9/90/22 5/14/22
f 17/91/23 6/9/23 9/36/23
f 12/13/24 19/92/24 15/39/24
f 19/43/25 11/10/25 16/12/25
f 27/44/26 26/93/26 24/2/26
f 33/94/27 25/6/27 26/95/27
f 34/51/28 32/96/28 28/8/28
f 32/50/29 36/56/29 29/4/29
f 35/11/30 23/97/30 39/98/30
f 23/99/31 36/56/31 39/58/31
f 14/7/32 37/100/32 34/51/32
f 20/101/33 35/11/33 37/55/33
f 28/8/34 10/102/34 6/9/34
f 10/32/35 27/44/35 4/1/35
f 41/18/25 50/60/25 43/103/25
f 50/104/24 42/30/24 43/105/24
f 54/23/23 49/106/23 45/24/23
f 60/107/22 46/28/22 49/64/22
f 52/26/21 59/108/21 55/27/21
f 59/71/20 51/29/20 56/69/20
f 68/20/31 66/109/31 64/21/31
f 66/110/30 67/72/30 65/16/30
f 75/82/29 72/111/29 68/20/29
f 77/112/28 69/22/28 72/78/28
f 62/19/27 79/113/27 75/82/27
f 79/86/26 61/114/26 76/25/26
f 55/27/35 80/115/35 76/25/35
f 80/81/34 54/23/34 74/79/34
f 67/72/33 47/116/33 44/17/33
f 73/117/32 45/24/32 47/62/32
f 4/1/1 27/44/1 24/2/1
f 29/4/2 36/56/2 21/5/2
f 14/7/3 34/51/3 28/8/3
f 11/10/4 22/118/4 35/11/4
f 12/13/5 15/39/5 5/14/5
f 65/16/4 67/72/4 44/17/4
f 62/19/2 75/82/2 68/20/2
f 69/22/3 74/79/3 54/23/3
f 76/25/1 61/114/1 52/26/1
f 46/28/5 56/69/5 51/29/5
f 4/1/36 7/88/36 8/31/36
f 5/14/37 9/90/37 8/33/37
f 6/9/38 10/102/38 8/35/38
f 14/7/39 17/91/39 18/37/39
f 15/39/40 19/92/40 18/40/40
f 16/12/41 20/101/41 18/42/41
f 27/44/42 30/119/42 31/45/42
f 28/8/43 32/96/43 31/47/43
f 29/4/44 33/94/44 31/49/44
f 34/51/45 37/100/45 38/52/45
f 35/11/46 39/98/46 38/54/46
f 36/56/47 40/120/47 38/57/47
f 44/17/41 47/116/41 48/59/41
f 45/24/39 49/106/39 48/61/39
f 46/28/40 50/104/40 48/63/40
f 54/23/38 57/121/38 58/65/38
f 55/27/36 59/108/36 58/67/36
f 56/69/37 60/107/37 58/70/37
f 67/72/46 70/122/46 71/73/46
f 68/20/48 72/111/48 71/75/48
f 69/22/45 73/117/45 71/77/45
f 74/79/43 77/112/43 78/80/43
f 75/82/44 79/113/44 78/83/44
f 76/25/42 80/115/42 78/85/42
f 5/14/20 7/34/20 3/87/20
f 7/88/21 4/1/21 2/3/21
f 15/39/22 17/41/22 9/90/22
f 17/91/23 14/7/23 6/9/23
f 12/13/24 13/123/24 19/92/24
f 19/43/25 13/124/25 11/10/25
f 27/44/26 33/46/26 26/93/26
f 33/94/27 29/4/27 25/6/27
f 34/51/28 40/53/28 32/96/28
f 32/50/29 40/120/29 36/56/29
f 35/11/30 22/118/30 23/97/30
f 23/99/31 21/5/31 36/56/31
f 14/7/32 20/38/32 37/100/32
f 20/101/33 16/12/33 35/11/33
f 28/8/34 30/48/34 10/102/34
f 10/32/35 30/119/35 27/44/35
f 41/18/25 44/17/25 50/60/25
f 50/104/24 46/28/24 42/30/24
f 54/23/23 60/66/23 49/106/23
f 60/107/22 56/69/22 46/28/22
f 52/26/21 53/125/21 59/108/21
f 59/71/20 53/126/20 51/29/20
f 68/20/31 70/76/31 66/109/31
f 66/110/30 70/122/30 67/72/30
f 75/82/29 77/84/29 72/111/29
f 77/112/28 74/79/28 69/22/28
f 62/19/27 63/127/27 79/113/27
f 79/86/26 63/128/26 61/114/26
f 55/27/35 57/68/35 80/115/35
f 80/81/34 57/121/34 54/23/34
f 67/72/33 73/74/33 47/116/33
f 73/117/32 69/22/32 45/24/32
o Plane
v -2.996711 -0.131913 4.122129
v -2.903786 -0.131913 4.254042
v -2.903786 -0.000000 4.122129
v -2.969494 -0.131913 4.215405
v -2.957436 -0.055753 4.198289
v -2.903786 -0.038637 4.215405
v -2.969494 -0.038637 4.122129
v 2.903786 -0.131913 4.254042
v 2.996711 -0.131913 4.122129
v 2.903786 -0.000000 4.122129
v 2.969494 -0.131913 4.215405
v 2.957436 -0.055753 4.198289
v 2.969494 -0.038637 4.122129
v 2.903786 -0.038637 4.215405
v -2.996711 -0.131913 -4.122129
v -2.903786 -0.000000 -4.122129
v -2.903786 -0.131913 -4.254042
v -2.969494 -0.038637 -4.122129
v -2.957436 -0.055753 -4.198289
v -2.903786 -0.038637 -4.215405
v -2.969494 -0.131913 -4.215405
v 2.996711 -0.131913 -4.122129
v 2.903786 -0.131913 -4.254042
v 2.903786 -0.000000 -4.122129
v 2.969494 -0.131913 -4.215405
v 2.957436 -0.055753 -4.198289
v 2.903786 -0.038637 -4.215405
v 2.969494 -0.038637 -4.122129
v -2.996711 -0.644308 -4.122129
v -2.903786 -0.644308 -4.254042
v -2.903786 -0.776221 -4.122129
v -2.969494 -0.644308 -4.215405
v -2.957436 -0.720468 -4.198289
v -2.903786 -0.737584 -4.215405
v -2.969494 -0.737584 -4.122129
v -2.996711 -0.644308 4.122129
v -2.903786 -0.776221 4.122129
v -2.903786 -0.644308 4.254042
v -2.969494 -0.737584 4.122129
v -2.957436 -0.720468 4.198289
v -2.903786 -0.737584 4.215405
v -2.969494 -0.644308 4.215405
v 2.903786 -0.644308 4.254042
v 2.903786 -0.776221 4.122129
v 2.996711 -0.644308 4.122129
v 2.903786 -0.737584 4.215405
v 2.957436 -0.720468 4.198289
v 2.969494 -0.737584 4.122129
v 2.969494 -0.644308 4.215405
v 2.996711 -0.644308 -4.122129
v 2.903786 -0.776221 -4.122129
v 2.903786 -0.644308 -4.254042
v 2.969494 -0.737584 -4.122129
v 2.957436 -0.720468 -4.198289
v 2.903786 -0.737584 -4.215405
v 2.969494 -0.644308 -4.215405
vt 0.344030 0.549259
vt 0.326866 0.821583
vt 0.327103 0.549244
vt 0.381480 0.559154
vt 0.653819 0.831494
vt 0.381480 0.831494
vt 0.318128 0.847217
vt 0.045803 0.830054
vt 0.318143 0.830291
vt 0.020169 0.821316
vt 0.037333 0.548991
vt 0.037096 0.821331
vt 0.318151 0.821576
vt 0.046048 0.548999
vt 0.318388 0.549236
vt 0.318396 0.540521
vt 0.322136 0.544882
vt 0.318392 0.544878
vt 0.327107 0.544886
vt 0.322746 0.549240
vt 0.322505 0.825323
vt 0.322508 0.821580
vt 0.322501 0.830295
vt 0.318147 0.825933
vt 0.046056 0.540284
vt 0.041694 0.545251
vt 0.041698 0.540280
vt 0.046052 0.544641
vt 0.041691 0.548995
vt 0.042063 0.825693
vt 0.045807 0.825696
vt 0.037092 0.825688
vt 0.045811 0.821338
vt 0.041453 0.821335
vt 0.046071 0.523357
vt 0.041715 0.520838
vt 0.046075 0.519000
vt 0.020407 0.548976
vt 0.016051 0.546457
vt 0.020411 0.544619
vt 0.377122 0.556638
vt 0.381480 0.554796
vt 0.318410 0.523595
vt 0.320930 0.519239
vt 0.322768 0.523598
vt 0.378964 0.835851
vt 0.377122 0.831494
vt 0.346549 0.544903
vt 0.348387 0.549262
vt 0.343792 0.821598
vt 0.348148 0.824118
vt 0.343788 0.825956
vt 0.658177 0.834010
vt 0.653819 0.835851
vt 0.322484 0.849737
vt 0.318124 0.851575
vt 0.045789 0.846980
vt 0.043269 0.851335
vt 0.041431 0.846976
vt 0.653819 0.559154
vt 0.656335 0.554796
vt 0.658177 0.559154
vt 0.017650 0.825671
vt 0.015812 0.821312
vt 0.377122 0.559154
vt 0.318414 0.519237
vt 0.381480 0.835851
vt 0.348150 0.821602
vt 0.658177 0.831494
vt 0.045785 0.851337
vt 0.653819 0.554796
vt 0.016049 0.548973
vt 0.037337 0.544633
vt 0.041713 0.523353
vt 0.020166 0.825673
vt 0.041446 0.830050
vt 0.326862 0.825941
vt 0.322486 0.847221
vt 0.344033 0.544901
vt 0.322753 0.540525
vn 0.0000 0.0000 1.0000
vn 0.0000 -1.0000 0.0000
vn 1.0000 0.0000 0.0000
vn 0.0000 0.0000 -1.0000
vn 0.0000 1.0000 0.0000
vn -0.9385 0.2739 0.2101
vn -0.4889 0.2642 0.8314
vn -0.3848 0.8528 0.3532
vn 0.3848 0.3532 0.8528
vn 0.9385 0.2101 0.2739
vn 0.4889 0.8314 0.2642
vn -0.9385 0.2101 -0.2739
vn -0.4889 0.8314 -0.2642
vn -0.3848 0.3532 -0.8528
vn 0.9385 0.2739 -0.2101
vn 0.4889 0.2642 -0.8314
vn 0.3848 0.8528 -0.3532
vn -0.9385 -0.2739 -0.2101
vn -0.4889 -0.2642 -0.8314
vn -0.3848 -0.8528 -0.3532
vn -0.9385 -0.2101 0.2739
vn -0.4889 -0.8314 0.2642
vn -0.3848 -0.3532 0.8528
vn 0.4889 -0.2642 0.8314
vn 0.3848 -0.8528 0.3532
vn 0.9385 -0.2739 0.2101
vn 0.9385 -0.2101 -0.2739
vn 0.4889 -0.8314 -0.2642
vn 0.3848 -0.3532 -0.8528
vn -0.9600 0.2801 0.0000
vn -0.5069 0.8620 0.0000
vn 0.0000 0.3827 0.9239
vn 0.0000 0.9239 0.3827
vn 0.9600 0.2801 0.0000
vn 0.5069 0.8620 0.0000
vn 0.0000 0.3827 -0.9239
vn 0.0000 0.9239 -0.3827
vn -0.5069 -0.8620 0.0000
vn -0.9600 -0.2801 0.0000
vn 0.0000 -0.9239 0.3827
vn 0.0000 -0.3827 0.9239
vn 0.5069 -0.8620 0.0000
vn 0.9600 -0.2801 0.0000
vn 0.0000 -0.9239 -0.3827
vn 0.0000 -0.3827 -0.9239
vn -0.5069 0.0000 -0.8620
vn -0.9600 0.0000 -0.2801
vn 0.5069 0.0000 -0.8620
vn 0.9600 0.0000 -0.2801
vn 0.5069 0.0000 0.8620
vn 0.9600 0.0000 0.2801
vn -0.5069 0.0000 0.8620
vn -0.9600 0.0000 0.2801
vn -1.0000 0.0000 0.0000
vn -0.9385 0.2101 0.2739
vn -0.3848 0.3532 0.8528
vn -0.4889 0.8314 0.2642
vn 0.4889 0.2642 0.8314
vn 0.9385 0.2739 0.2101
vn 0.3848 0.8528 0.3532
vn -0.9385 0.2739 -0.2101
vn -0.3848 0.8528 -0.3532
vn -0.4889 0.2642 -0.8314
vn 0.9385 0.2101 -0.2739
vn 0.3848 0.3532 -0.8528
vn 0.4889 0.8314 -0.2642
vn -0.9385 -0.2101 -0.2739
vn -0.3848 -0.3532 -0.8528
vn -0.4889 -0.8314 -0.2642
vn -0.9385 -0.2739 0.2101
vn -0.3848 -0.8528 0.3532
vn -0.4889 -0.2642 0.8314
vn 0.3848 -0.3532 0.8528
vn 0.4889 -0.8314 0.2642
vn 0.9385 -0.2101 0.2739
vn 0.9385 -0.2739 -0.2101
vn 0.3848 -0.8528 -0.3532
vn 0.4889 -0.2642 -0.8314
s off
f 118/129/49 88/130/49 82/131/49
f 111/132/50 124/133/50 117/134/50
f 125/135/51 102/136/51 89/137/51
f 132/138/52 97/139/52 103/140/52
f 90/141/53 96/142/53 83/143/53
f 81/144/54 85/145/54 87/146/54
f 82/131/55 85/145/55 84/147/55
f 83/143/56 85/145/56 86/148/56
f 88/130/57 92/149/57 94/150/57
f 89/137/58 92/149/58 91/151/58
f 90/141/59 92/149/59 93/152/59
f 95/153/60 99/154/60 101/155/60
f 96/142/61 99/154/61 98/156/61
f 97/139/62 99/154/62 100/157/62
f 102/136/63 106/158/63 108/159/63
f 103/140/64 106/158/64 105/160/64
f 104/161/65 106/158/65 107/162/65
f 109/163/66 113/164/66 115/165/66
f 110/166/67 113/167/67 112/168/67
f 111/132/68 113/169/68 114/170/68
f 116/171/69 120/172/69 122/173/69
f 117/134/70 120/174/70 119/175/70
f 118/129/71 120/176/71 121/177/71
f 123/178/72 127/179/72 129/180/72
f 124/133/73 127/181/73 126/182/73
f 125/135/74 127/183/74 128/184/74
f 130/185/75 134/186/75 136/187/75
f 131/188/76 134/189/76 133/190/76
f 132/138/77 134/191/77 135/192/77
f 81/144/78 98/156/78 95/153/78
f 87/146/79 96/142/79 98/156/79
f 88/130/80 86/148/80 82/131/80
f 94/150/81 83/143/81 86/148/81
f 102/136/82 93/152/82 89/137/82
f 108/159/83 90/141/83 93/152/83
f 97/139/84 107/162/84 103/140/84
f 100/157/85 104/161/85 107/162/85
f 111/132/86 119/175/86 115/193/86
f 119/194/87 109/163/87 115/165/87
f 117/134/88 126/182/88 121/195/88
f 126/196/89 118/129/89 121/177/89
f 124/133/90 133/190/90 128/197/90
f 133/198/91 125/135/91 128/184/91
f 131/188/92 114/170/92 135/199/92
f 114/200/93 132/138/93 135/192/93
f 110/166/94 101/201/94 97/139/94
f 112/202/95 95/153/95 101/155/95
f 103/140/96 136/203/96 132/138/96
f 105/204/97 130/185/97 136/187/97
f 123/178/98 91/205/98 88/130/98
f 129/206/99 89/137/99 91/151/99
f 82/131/100 122/207/100 118/129/100
f 84/208/101 116/171/101 122/173/101
f 109/163/102 81/144/102 95/153/102
f 118/129/49 123/178/49 88/130/49
f 111/132/50 131/188/50 124/133/50
f 125/135/51 130/185/51 102/136/51
f 132/138/52 110/166/52 97/139/52
f 90/141/53 104/161/53 96/142/53
f 81/144/103 84/208/103 85/145/103
f 82/131/104 86/148/104 85/145/104
f 83/143/105 87/146/105 85/145/105
f 88/130/106 91/205/106 92/149/106
f 89/137/107 93/152/107 92/149/107
f 90/141/108 94/150/108 92/149/108
f 95/153/109 98/156/109 99/154/109
f 96/142/110 100/157/110 99/154/110
f 97/139/111 101/201/111 99/154/111
f 102/136/112 105/204/112 106/158/112
f 103/140/113 107/162/113 106/158/113
f 104/161/114 108/159/114 106/158/114
f 109/163/115 112/202/115 113/164/115
f 110/166/116 114/200/116 113/167/116
f 111/132/117 115/193/117 113/169/117
f 116/171/118 119/194/118 120/172/118
f 117/134/119 121/195/119 120/174/119
f 118/129/120 122/207/120 120/176/120
f 123/178/121 126/196/121 127/179/121
f 124/133/122 128/197/122 127/181/122
f 125/135/123 129/206/123 127/183/123
f 130/185/124 133/198/124 134/186/124
f 131/188/125 135/199/125 134/189/125
f 132/138/126 136/203/126 134/191/126
f 81/144/78 87/146/78 98/156/78
f 87/146/79 83/143/79 96/142/79
f 88/130/80 94/150/80 86/148/80
f 94/150/81 90/141/81 83/143/81
f 102/136/82 108/159/82 93/152/82
f 108/159/83 104/161/83 90/141/83
f 97/139/84 100/157/84 107/162/84
f 100/157/85 96/142/85 104/161/85
f 111/132/86 117/134/86 119/175/86
f 119/194/87 116/171/87 109/163/87
f 117/134/88 124/133/88 126/182/88
f 126/196/89 123/178/89 118/129/89
f 124/133/90 131/188/90 133/190/90
f 133/198/91 130/185/91 125/135/91
f 131/188/92 111/132/92 114/170/92
f 114/200/93 110/166/93 132/138/93
f 110/166/94 112/168/94 101/201/94
f 112/202/95 109/163/95 95/153/95
f 103/140/96 105/160/96 136/203/96
f 105/204/97 102/136/97 130/185/97
f 123/178/98 129/180/98 91/205/98
f 129/206/99 125/135/99 89/137/99
f 82/131/100 84/147/100 122/207/100
f 84/208/101 81/144/101 116/171/101
f 109/163/102 116/171/102 81/144/102
